<?xml version="1.0"?>
<svg xmlns="http://www.w3.org/2000/svg" xmlns:xlink="http://www.w3.org/1999/xlink" version="1.1" id="Layer_1" x="0px" y="0px" viewBox="0 0 508.646 508.646" style="enable-background:new 0 0 508.646 508.646;" xml:space="preserve" width="512px" height="512px" class=""><g><g>
	<g>
		<g>
			<rect x="87.12" y="429.95" width="95.544" height="15" data-original="#000000" class="active-path" data-old_color="#000000" fill="#00AAAD"/>
		</g>
		<g>
			<rect x="174.702" y="183.127" width="15.924" height="15" data-original="#000000" class="active-path" data-old_color="#000000" fill="#00AAAD"/>
		</g>
		<g>
			<rect x="246.361" y="270.709" width="191.089" height="15" data-original="#000000" class="active-path" data-old_color="#000000" fill="#00AAAD"/>
		</g>
		<g>
			<rect x="246.361" y="350.329" width="191.089" height="15" data-original="#000000" class="active-path" data-old_color="#000000" fill="#00AAAD"/>
		</g>
		<g>
			<rect x="413.564" y="429.95" width="23.886" height="15" data-original="#000000" class="active-path" data-old_color="#000000" fill="#00AAAD"/>
		</g>
		<g>
			<rect x="349.867" y="429.95" width="15.924" height="15" data-original="#000000" class="active-path" data-old_color="#000000" fill="#00AAAD"/>
		</g>
		<g>
			<rect x="55.272" y="429.95" width="15.925" height="15" data-original="#000000" class="active-path" data-old_color="#000000" fill="#00AAAD"/>
			<rect x="198.589" y="429.95" width="15.924" height="15" data-original="#000000" class="active-path" data-old_color="#000000" fill="#00AAAD"/>
			<path d="M195.261,350.329h-13.059v-23.886h-70.734v23.886H74.523l-23.887,47.772h-26.75v110.544h46.849     v-31.848h40.271v-15h-60.59l-11.53-11.531v-37.166h192.013v37.166l-11.53,11.531h-84.476v15h64.158v31.848h46.848V398.102h-26.75     L195.261,350.329z M44.203,476.798h11.531v16.848H38.886V471.48L44.203,476.798z M126.468,341.443h40.734v8.886h-40.734V341.443z      M67.407,398.102l16.387-32.772h102.197l16.386,32.772H67.407z M230.899,493.646h-16.848v-16.848h11.53l5.317-5.318V493.646z" data-original="#000000" class="active-path" data-old_color="#000000" fill="#00AAAD"/>
			<polygon points="70.735,15 254.323,15 254.323,0 55.735,0 55.735,333.943 70.735,333.943    " data-original="#000000" class="active-path" data-old_color="#000000" fill="#00AAAD"/>
			<path d="M392.783,0H278.209v15h103.968v87.583h87.583v175.626h15V91.976L392.783,0z M397.177,25.606     l61.977,61.976h-61.977V25.606z" data-original="#000000" class="active-path" data-old_color="#000000" fill="#00AAAD"/>
			<polygon points="469.76,493.646 270.247,493.646 270.247,508.646 484.76,508.646 484.76,302.095      469.76,302.095    " data-original="#000000" class="active-path" data-old_color="#000000" fill="#00AAAD"/>
			<rect x="206.551" y="183.127" width="15.924" height="15" data-original="#000000" class="active-path" data-old_color="#000000" fill="#00AAAD"/>
			<rect x="246.361" y="310.519" width="191.089" height="15" data-original="#000000" class="active-path" data-old_color="#000000" fill="#00AAAD"/>
			<path d="M95.544,198.589v31.386h158.316v-31.386c0-33.572-21.018-62.31-50.579-73.798     c11.372-8.649,18.731-22.314,18.731-37.67c0-26.087-21.224-47.31-47.311-47.31s-47.31,21.223-47.31,47.31     c0,15.356,7.359,29.022,18.73,37.67C116.562,136.279,95.544,165.016,95.544,198.589z M142.393,87.121     c0-17.816,14.494-32.31,32.31-32.31c17.816,0,32.311,14.494,32.311,32.31s-14.494,32.31-32.311,32.31     C156.887,119.431,142.393,104.937,142.393,87.121z M174.702,134.431c35.377,0,64.158,28.781,64.158,64.158v16.386H110.544     v-16.386c0-0.155,0.011-0.307,0.012-0.462h48.223v-15h-46.339C119.378,155.196,144.656,134.431,174.702,134.431z" data-original="#000000" class="active-path" data-old_color="#000000" fill="#00AAAD"/>
			<path d="M436.988,198.589c0-21.697-17.651-39.348-39.349-39.348c-21.696,0-39.348,17.651-39.348,39.348     s17.651,39.348,39.348,39.348C419.336,237.937,436.988,220.286,436.988,198.589z M373.291,198.589     c0-13.426,10.922-24.348,24.348-24.348s24.349,10.922,24.349,24.348s-10.923,24.348-24.349,24.348     S373.291,212.015,373.291,198.589z" data-original="#000000" class="active-path" data-old_color="#000000" fill="#00AAAD"/>
			<rect x="318.019" y="390.14" width="119.431" height="15" data-original="#000000" class="active-path" data-old_color="#000000" fill="#00AAAD"/>
			<rect x="381.715" y="429.95" width="15.924" height="15" data-original="#000000" class="active-path" data-old_color="#000000" fill="#00AAAD"/>
			<rect x="318.019" y="429.95" width="15.924" height="15" data-original="#000000" class="active-path" data-old_color="#000000" fill="#00AAAD"/>
		</g>
	</g>
</g></g> </svg>
